<svg width="24" height="66" viewBox="0 0 24 66" fill="none" xmlns="http://www.w3.org/2000/svg">
<g id="active_deco_white" clip-path="url(#clip0_0_1173)">
<g id="Group">
<path id="Vector" d="M19.68 39.38C22.77 35.69 22.77 30.32 19.68 26.62L0 3.10999V62.89L19.68 39.38Z" fill="white"/>
<path id="Vector_2" d="M21.22 25.35L1.54 1.84L0 0V1.56L20.45 25.99C23.85 30.06 23.85 35.96 20.45 40.02L0 64.44V66L1.54 64.16L21.22 40.65C24.93 36.21 24.93 29.78 21.22 25.34V25.35Z" fill="white"/>
<path id="Vector_3" d="M20.45 40.0201C23.85 35.9501 23.85 30.0501 20.45 25.9901L0 1.56006V64.4501L20.45 40.0201ZM19.68 26.6201C22.77 30.3101 22.77 35.6801 19.68 39.3801L0 62.8901V3.11006L19.68 26.6201Z" fill="white"/>
</g>
<path id="Vector_4" d="M6.40001 40.4301C6.27001 40.4301 6.14001 40.3801 6.05001 40.2801C5.86001 40.0801 5.86001 39.7701 6.05001 39.5701L10.84 34.8001C11.27 34.3701 11.51 33.8001 11.51 33.1901C11.51 32.5801 11.27 32.0101 10.84 31.5801L5.66001 26.4201C5.46001 26.2301 5.46001 25.9101 5.66001 25.7101C5.86001 25.5101 6.17001 25.5101 6.37001 25.7101L11.55 30.8701C12.17 31.4901 12.51 32.3101 12.51 33.1901C12.51 34.0701 12.17 34.8901 11.55 35.5101L6.76001 40.2801C6.66001 40.3801 6.54001 40.4301 6.41001 40.4301H6.40001Z" fill="#0B63FF"/>
</g>
<defs>
<clipPath id="clip0_0_1173">
<rect width="24" height="66" fill="white"/>
</clipPath>
</defs>
</svg>
