<svg width="16" height="16" viewBox="0 0 16 16" fill="none" xmlns="http://www.w3.org/2000/svg">
<g id="icon" clip-path="url(#clip0_0_783)">
<g id="Group" opacity="0.75">
<path id="Vector" d="M15 9.32996H12.67C12.3 9.32996 12 9.62996 12 9.99996C12 10.37 11.7 10.67 11.33 10.67H4.66C4.29 10.67 3.99 10.37 3.99 9.99996C3.99 9.62996 3.69 9.32996 3.32 9.32996H1C0.45 9.32996 0 9.77996 0 10.33V14.66C0 15.4 0.6 15.99 1.33 15.99H14.66C15.4 15.99 15.99 15.39 15.99 14.66V10.33C15.99 9.77996 15.54 9.32996 14.99 9.32996H15Z" fill="black"/>
<path id="Vector_2" d="M6.32991 8C5.95991 8 5.65991 8.3 5.65991 8.67C5.65991 9.04 5.95991 9.34 6.32991 9.34H9.65991C10.0299 9.34 10.3299 9.04 10.3299 8.67C10.3299 8.3 10.0299 8 9.65991 8H6.32991Z" fill="black"/>
<path id="Vector_3" d="M1.67 7.32996C2.04 7.32996 2.34 7.02996 2.34 6.65996H13.67C13.67 7.02996 13.97 7.32996 14.34 7.32996C14.71 7.32996 15.01 7.02996 15.01 6.65996C15.01 5.91996 14.41 5.32996 13.68 5.32996H2.33C1.59 5.32996 1 5.92996 1 6.65996C1 7.02996 1.3 7.32996 1.67 7.32996Z" fill="black"/>
<path id="Vector_4" d="M1.67 4.67004C2.04 4.67004 2.34 4.37004 2.34 4.00004H13.67C13.67 4.37004 13.97 4.67004 14.34 4.67004C14.71 4.67004 15.01 4.37004 15.01 4.00004C15.01 3.26004 14.41 2.67004 13.68 2.67004H2.33C1.59 2.67004 1 3.27004 1 4.00004C1 4.37004 1.3 4.67004 1.67 4.67004Z" fill="black"/>
<path id="Vector_5" d="M1.67 2C2.04 2 2.34 1.7 2.34 1.33H13.67C13.67 1.7 13.97 2 14.34 2C14.71 2 15.01 1.7 15.01 1.33C15.01 0.59 14.41 0 13.68 0H2.33C1.59 0 1 0.6 1 1.33C1 1.7 1.3 2 1.67 2Z" fill="black"/>
</g>
</g>
<defs>
<clipPath id="clip0_0_783">
<rect width="16" height="16" fill="white"/>
</clipPath>
</defs>
</svg>
