<svg width="16" height="16" viewBox="0 0 16 16" fill="none" xmlns="http://www.w3.org/2000/svg">
<path id="Vector" opacity="0.5" d="M14.345 2.01H12.515C12.425 2.01 12.345 1.94 12.345 1.84V0.67C12.345 0.3 12.045 0 11.675 0C11.305 0 11.005 0.3 11.005 0.67V3.84C11.005 4.12 10.785 4.34 10.505 4.34C10.225 4.34 10.005 4.12 10.005 3.84V2.34C10.005 2.16 9.85496 2.01 9.67496 2.01H5.50496C5.41496 2.01 5.33496 1.94 5.33496 1.84V0.67C5.33496 0.3 5.03495 0 4.66495 0C4.29495 0 3.99495 0.3 3.99495 0.67V3.84C3.99495 4.12 3.77495 4.34 3.49495 4.34C3.21495 4.34 2.99495 4.12 2.99495 3.84V2.34C2.99495 2.16 2.84495 2.01 2.66495 2.01H1.66495C0.924948 2.01 0.334961 2.61 0.334961 3.34V14.67C0.334961 15.41 0.934947 16 1.66495 16H14.335C15.075 16 15.6649 15.4 15.6649 14.67V3.34C15.6649 2.6 15.065 2.01 14.335 2.01H14.345ZM14.015 14.67H2.01495C1.83495 14.67 1.68495 14.52 1.68495 14.34V6.34C1.68495 6.16 1.83495 6.01 2.01495 6.01H14.015C14.195 6.01 14.345 6.16 14.345 6.34V14.34C14.345 14.52 14.195 14.67 14.015 14.67Z" fill="black"/>
</svg>
