<svg width="30" height="31" viewBox="0 0 30 31" fill="none" xmlns="http://www.w3.org/2000/svg">
<g id="Layer_1" clip-path="url(#clip0_0_1324)">
<path id="Vector" d="M14.9999 30.4957C23.2818 30.4957 29.9957 23.7818 29.9957 15.4999C29.9957 7.21789 23.2818 0.504028 14.9999 0.504028C6.71789 0.504028 0.00402832 7.21789 0.00402832 15.4999C0.00402832 23.7818 6.71789 30.4957 14.9999 30.4957Z" fill="#F20823"/>
<path id="Vector_2" d="M10.9946 19.7304V11.3074C10.9946 11.1074 11.0692 10.9088 11.2192 10.7765C11.3398 10.6702 11.4824 10.6172 11.6474 10.6172H22.2698V7.35681H22.1192C21.1171 7.35681 20.305 8.16792 20.305 9.16831V9.19997C20.305 9.6945 19.9234 10.128 19.4282 10.1407C18.9201 10.1537 18.5038 9.74615 18.5042 9.24162V9.15498C18.5042 8.16192 17.6977 7.35715 16.7033 7.35715H11.0586C10.4214 7.35715 9.85057 7.50011 9.34604 7.78636C8.84152 8.07261 8.44596 8.46784 8.15937 8.97136C7.87279 9.47522 7.72949 10.0451 7.72949 10.6809V20.3189C7.72949 20.955 7.87279 21.5252 8.15937 22.0287C8.44629 22.5326 8.84152 22.9272 9.34604 23.2137C9.85024 23.5 10.4214 23.6433 11.0586 23.6433H22.2705V20.3829H11.6854C11.4851 20.3829 11.2865 20.3082 11.1542 20.1583C11.0479 20.0376 10.9949 19.8957 10.9949 19.7307L10.9946 19.7304Z" fill="white"/>
</g>
<defs>
<clipPath id="clip0_0_1324">
<rect width="29.9997" height="30" fill="white" transform="translate(0 0.5)"/>
</clipPath>
</defs>
</svg>
