<svg width="30" height="31" viewBox="0 0 30 31" fill="none" xmlns="http://www.w3.org/2000/svg">
<g id="Layer_1" clip-path="url(#clip0_0_1367)">
<path id="Vector" d="M25.6048 26.105C31.4618 20.248 31.4618 10.752 25.6048 4.89505C19.7479 -0.961903 10.2519 -0.961903 4.39493 4.89505C-1.46202 10.752 -1.46202 20.248 4.39493 26.105C10.2519 31.9619 19.7479 31.9619 25.6048 26.105Z" fill="url(#paint0_linear_0_1367)"/>
<path id="Vector_2" d="M23.883 7.05033L18.1267 8.42133L18.561 4.719L13.9697 4.18066L13.3387 9.56133L9.24969 10.5353L8.37802 13.4327L10.477 15.5587L12.576 17.685L6.63135 19.237L4.93402 24.878L5.17835 24.8207L11.7674 23.2687L11.362 26.7237L15.9534 27.262L16.5537 22.1413L19.7994 21.377L20.5967 18.7277L20.4357 18.5567L16.323 14.1853L22.1494 12.813L23.883 7.05033Z" fill="#DD0E27"/>
<path id="Vector_3" d="M23.9323 6.62394L18.176 7.99461L18.61 4.29261L14.019 3.75427L13.388 9.13494L9.29897 10.1086L8.42697 13.0063L10.526 15.1323L12.625 17.2583L6.68064 18.8103L4.98297 24.4516L5.22764 24.3939L11.8163 22.8423L11.4113 26.2973L16.0026 26.8356L16.603 21.7149L19.8486 20.9503L20.6456 18.3009L20.4846 18.1299L16.3723 13.7586L22.1983 12.3866L23.9323 6.62394Z" fill="url(#paint1_linear_0_1367)"/>
</g>
<defs>
<linearGradient id="paint0_linear_0_1367" x1="12.432" y1="30.2749" x2="17.5684" y2="0.723002" gradientUnits="userSpaceOnUse">
<stop stop-color="#DD0E27"/>
<stop offset="1" stop-color="#FF2E2E"/>
</linearGradient>
<linearGradient id="paint1_linear_0_1367" x1="13.1904" y1="26.5123" x2="15.7919" y2="3.95953" gradientUnits="userSpaceOnUse">
<stop stop-color="#FFE8E8"/>
<stop offset="1" stop-color="white"/>
</linearGradient>
<clipPath id="clip0_0_1367">
<rect width="30" height="30" fill="white" transform="translate(0 0.5)"/>
</clipPath>
</defs>
</svg>
