<svg width="21" height="24" viewBox="0 0 21 24" fill="none" xmlns="http://www.w3.org/2000/svg">
<g id="icon" clip-path="url(#clip0_0_769)">
<path id="Vector" d="M16.52 7.03005C16.27 6.92005 15.99 6.96005 15.77 7.12005C15.55 7.28005 15.44 7.54005 15.48 7.81005C15.6 8.74005 15.4 9.69005 14.91 10.5001C14.62 10.8501 14.18 11.0501 13.72 11.0301C13.31 11.0801 12.89 10.9501 12.59 10.6601C11.99 9.83005 12.86 7.24005 13.43 5.53005C13.94 3.99005 13.36 2.54005 11.8 1.32005C11.09 0.780051 10.3 0.360051 9.46 0.0500508C9.23 -0.0299492 8.98 0.0100508 8.78 0.150051C8.59 0.290051 8.47 0.520051 8.47 0.760051C8.47 1.87005 7.12 3.05005 5.56 4.41005C3.09 6.58005 0 9.29005 0 13.7301C0 19.3801 4.58 23.9601 10.23 23.9601C15.88 23.9601 20.46 19.3801 20.46 13.7301C20.59 10.9101 19.04 8.29005 16.52 7.03005ZM10.23 24.0001C7.92 24.0001 6.05 22.1201 6.05 19.8201C6.12 17.7501 6.77 15.7501 7.91 14.0201C8.05 13.7901 8.36 13.7101 8.6 13.8601C8.71 13.93 8.79 14.0401 8.82 14.1601C9.72 17.5801 14.42 17.3801 14.42 19.7501C14.45 22.0701 12.6 23.9701 10.29 24.0001C10.27 24.0001 10.26 24.0001 10.24 24.0001H10.23Z" fill="white"/>
</g>
<defs>
<clipPath id="clip0_0_769">
<rect width="20.47" height="24" fill="white"/>
</clipPath>
</defs>
</svg>
