<svg width="18" height="19" viewBox="0 0 18 19" fill="none" xmlns="http://www.w3.org/2000/svg">
<g id="loading_icon">
<g id="Group">
<path id="Vector" d="M7.80995 4.49915C8.71395 4.28347 9.6596 4.31785 10.5455 4.59861C11.4315 4.87937 12.2243 5.39592 12.8391 6.0929C12.9163 6.17987 13.0099 6.25079 13.1145 6.30159C13.2191 6.3524 13.3327 6.38211 13.4488 6.38901C13.5649 6.39592 13.6812 6.37989 13.7911 6.34184C13.901 6.3038 14.0024 6.24448 14.0893 6.16727C14.1763 6.09007 14.2472 5.99649 14.298 5.89187C14.3488 5.78726 14.3785 5.67366 14.3854 5.55757C14.3923 5.44148 14.3763 5.32516 14.3383 5.21526C14.3002 5.10537 14.2409 5.00404 14.1637 4.91706C13.335 3.98258 12.2676 3.29115 11.076 2.91681C9.88437 2.54248 8.61337 2.49936 7.39912 2.79206C6.1676 3.09934 5.03815 3.72411 4.1234 4.60405C3.20865 5.484 2.54058 6.58838 2.18578 7.80706C2.17309 7.84685 2.14724 7.88115 2.11249 7.90431C2.07774 7.92748 2.03615 7.93815 1.99453 7.93456L1.2862 7.84248C1.22154 7.8329 1.15549 7.84257 1.09629 7.87029C1.03708 7.898 0.987349 7.94252 0.953284 7.99831C0.917039 8.0529 0.897705 8.11696 0.897705 8.18248C0.897705 8.248 0.917039 8.31207 0.953284 8.36665L2.70287 11.4479C2.73216 11.4946 2.77155 11.5341 2.81814 11.5635C2.86472 11.5929 2.91731 11.6115 2.97203 11.6179C3.02646 11.6244 3.08166 11.6182 3.13329 11.5998C3.18491 11.5813 3.23155 11.5512 3.26953 11.5116L5.72745 8.96873C5.7751 8.92323 5.8085 8.86486 5.82359 8.80073C5.83868 8.73659 5.83481 8.66946 5.81245 8.60748C5.78658 8.5355 5.73809 8.47383 5.67425 8.43169C5.61041 8.38956 5.53464 8.36922 5.45828 8.37373L4.12662 8.20373C4.08849 8.18727 4.05808 8.15686 4.04162 8.11873C4.02922 8.0959 4.02272 8.07033 4.02272 8.04436C4.02272 8.01838 4.02922 7.99281 4.04162 7.96998C4.33583 7.12615 4.83366 6.36792 5.49098 5.76249C6.1483 5.15707 6.94482 4.72313 7.80995 4.49915Z" fill="#0B63FF"/>
<path id="Vector_2" d="M17.082 10.9874C17.1165 10.9321 17.1349 10.8683 17.1349 10.8032C17.1349 10.7381 17.1165 10.6742 17.082 10.619L15.3112 7.55194C15.2845 7.50533 15.2478 7.46524 15.2036 7.43461C15.1595 7.40398 15.1091 7.38357 15.0562 7.37486C15.0006 7.3683 14.9444 7.37446 14.8916 7.39287C14.8388 7.41128 14.791 7.44145 14.7516 7.48111L12.3078 10.0453C12.2628 10.0925 12.2318 10.1512 12.218 10.2149C12.2043 10.2787 12.2084 10.345 12.2299 10.4065C12.2511 10.4691 12.2896 10.5243 12.3411 10.5657C12.3925 10.6071 12.4547 10.633 12.5203 10.6403L13.8307 10.7961C13.8606 10.8034 13.8881 10.8183 13.9104 10.8394C13.9328 10.8605 13.9493 10.8871 13.9582 10.9165C13.9706 10.9394 13.9771 10.9649 13.9771 10.9909C13.9771 11.0169 13.9706 11.0424 13.9582 11.0653C13.6614 11.9124 13.1593 12.6728 12.4967 13.2785C11.8342 13.8842 11.0319 14.3163 10.1616 14.5361C9.25645 14.7508 8.31005 14.716 7.42317 14.4353C6.53629 14.1546 5.74214 13.6387 5.12532 12.9424C5.05151 12.8459 4.95863 12.7656 4.85245 12.7065C4.74628 12.6475 4.62909 12.6109 4.50817 12.5991C4.38725 12.5872 4.2652 12.6004 4.1496 12.6378C4.034 12.6752 3.92733 12.736 3.83623 12.8164C3.74513 12.8967 3.67154 12.995 3.62006 13.1051C3.56857 13.2151 3.54028 13.3346 3.53695 13.456C3.53362 13.5775 3.55533 13.6983 3.60071 13.811C3.64609 13.9237 3.71418 14.0259 3.80074 14.1111C4.44703 14.8458 5.2425 15.4343 6.13413 15.8374C7.02576 16.2404 7.99307 16.4488 8.97157 16.4486C9.5085 16.4479 10.0435 16.3837 10.5653 16.2574C11.8018 15.9494 12.9353 15.3211 13.8518 14.4357C14.7682 13.5503 15.4353 12.4391 15.7857 11.214C15.7973 11.174 15.8232 11.1396 15.8585 11.1174C15.8937 11.0952 15.9359 11.0868 15.977 11.0936L16.7703 11.1857C16.8351 11.183 16.8981 11.1633 16.9528 11.1284C17.0075 11.0936 17.0521 11.0449 17.082 10.9874Z" fill="#0B63FF"/>
</g>
</g>
</svg>
