<svg width="12" height="12" viewBox="0 0 12 12" fill="none" xmlns="http://www.w3.org/2000/svg">
<g id="Lock-6--Streamline-Ultimate">
<path id="Vector" d="M9.18753 5.08393V3.52087C9.18753 2.6755 8.8517 1.86474 8.25393 1.26697C7.65616 0.669199 6.8454 0.333374 6.00003 0.333374C5.15465 0.333374 4.3439 0.669199 3.74612 1.26697C3.14835 1.86474 2.81253 2.6755 2.81253 3.52087V5.08393C2.42386 5.27977 2.09688 5.57923 1.86772 5.94924C1.63855 6.31924 1.51611 6.74538 1.51392 7.1806V9.3056C1.51392 9.9318 1.76268 10.5324 2.20547 10.9752C2.64826 11.4179 3.24882 11.6667 3.87503 11.6667H8.12503C8.43509 11.6667 8.74212 11.6056 9.02858 11.487C9.31505 11.3683 9.57533 11.1944 9.79458 10.9752C10.0138 10.7559 10.1878 10.4956 10.3064 10.2092C10.4251 9.92269 10.4861 9.61566 10.4861 9.3056V7.1806C10.4839 6.74538 10.3615 6.31924 10.1323 5.94924C9.90317 5.57923 9.5762 5.27977 9.18753 5.08393ZM6.94447 8.10143C6.94447 8.28822 6.88908 8.47082 6.7853 8.62613C6.68153 8.78145 6.53402 8.9025 6.36145 8.97398C6.18888 9.04546 5.99898 9.06417 5.81577 9.02773C5.63257 8.99128 5.46429 8.90133 5.3322 8.76925C5.20012 8.63717 5.11017 8.46889 5.07373 8.28568C5.03729 8.10248 5.05599 7.91258 5.12747 7.74001C5.19896 7.56743 5.32001 7.41993 5.47532 7.31615C5.63063 7.21238 5.81323 7.15698 6.00003 7.15698C6.25051 7.15698 6.49073 7.25649 6.66785 7.43361C6.84497 7.61072 6.94447 7.85095 6.94447 8.10143ZM6.00003 1.51393C6.53192 1.51518 7.04167 1.72702 7.41777 2.10313C7.79388 2.47923 8.00572 2.98898 8.00697 3.52087V4.58337C8.00697 4.64599 7.9821 4.70605 7.93782 4.75033C7.89354 4.79461 7.83348 4.81948 7.77086 4.81948H4.22919C4.16657 4.81948 4.10652 4.79461 4.06224 4.75033C4.01796 4.70605 3.99308 4.64599 3.99308 4.58337V3.52087C3.99433 2.98898 4.20618 2.47923 4.58228 2.10313C4.95839 1.72702 5.46814 1.51518 6.00003 1.51393Z" fill="black"/>
</g>
</svg>
