<svg width="72" height="28" viewBox="0 0 72 28" fill="none" xmlns="http://www.w3.org/2000/svg">
<g id="BODY" clip-path="url(#clip0_0_906)">
<g id="Group">
<g id="Group_2">
<path id="Vector" d="M29.1799 14.89V3.25H35.1199C35.9999 3.25 36.7499 3.41 37.3799 3.72C38.0099 4.03 38.4999 4.47 38.8499 5.03C39.1999 5.6 39.3699 6.27 39.3699 7.04C39.3699 7.77 39.2199 8.38 38.9299 8.88C38.6399 9.37 38.2399 9.77 37.7499 10.06C37.2599 10.35 36.6999 10.56 36.0699 10.69C35.4399 10.82 34.7999 10.88 34.1499 10.88H32.5399V14.89H29.1799ZM32.5399 8.53H34.4399C34.9899 8.53 35.3999 8.42 35.6699 8.21C35.9399 8 36.0699 7.68 36.0699 7.25C36.0699 6.82 35.9399 6.52 35.6799 6.33C35.4199 6.14 35.0099 6.04 34.4399 6.04H32.5399V8.53ZM36.3099 14.89L33.9499 10.63L37.1099 10.05L40.0199 14.89H36.3099Z" fill="black"/>
<path id="Vector_2" d="M43.68 14.9L39.79 3.24998H43.28L45.37 10.73H45.45L47.49 3.22998H50.45L52.58 10.68H52.66L54.79 3.24998H58.15L54.41 14.9H51.07L48.91 7.76998H48.88L46.89 14.9H43.68Z" fill="black"/>
<path id="Vector_3" d="M63.16 14.89V11.37L58.47 3.26001H62.34L64.83 8.23001H64.9L67.41 3.26001H71.13L66.51 11.27V14.89H63.15H63.16Z" fill="black"/>
</g>
<g id="Group_3">
<path id="Vector_4" d="M29.3499 27.02V19.23H29.9999L30.0999 19.88L30.4699 19.65C30.7199 19.49 30.9799 19.37 31.2399 19.28C31.4999 19.19 31.7499 19.15 32.0099 19.15C32.4999 19.15 32.9299 19.27 33.2999 19.51C33.6699 19.75 33.9699 20.08 34.1799 20.5C34.3899 20.92 34.4999 21.4 34.4999 21.94C34.4999 22.35 34.4399 22.72 34.3199 23.06C34.1999 23.4 34.0299 23.69 33.8099 23.94C33.5899 24.19 33.3299 24.38 33.0199 24.52C32.7199 24.66 32.3799 24.73 32.0099 24.73C31.7799 24.73 31.5399 24.7 31.2899 24.63C31.0399 24.56 30.8099 24.47 30.5899 24.36L30.2299 24.16V26.77L29.3599 27.01L29.3499 27.02ZM31.7699 23.93C32.1399 23.93 32.4599 23.85 32.7299 23.69C32.9999 23.53 33.2099 23.3 33.3699 23C33.5299 22.7 33.5999 22.35 33.5999 21.94C33.5999 21.53 33.5299 21.2 33.3899 20.9C33.2499 20.6 33.0399 20.36 32.7699 20.19C32.4999 20.02 32.1699 19.93 31.7799 19.93C31.6099 19.93 31.4399 19.96 31.2599 20.01C31.0799 20.06 30.8799 20.15 30.6599 20.27L30.2199 20.49V23.46L30.6799 23.65C30.8999 23.74 31.0899 23.8 31.2699 23.85C31.4399 23.9 31.6099 23.92 31.7699 23.92V23.93Z" fill="black"/>
<path id="Vector_5" d="M35.9099 24.65V19.22H36.5499L36.6699 19.95L37.1099 19.66C37.3299 19.51 37.5799 19.38 37.8499 19.29C38.1199 19.2 38.3799 19.15 38.6199 19.15C38.6899 19.15 38.7699 19.15 38.8399 19.18C38.9099 19.21 38.9899 19.23 39.0499 19.27V19.95C38.7999 19.95 38.5499 19.98 38.2999 20.03C38.0599 20.07 37.7699 20.17 37.4299 20.32L36.7699 20.6V24.66H35.8999L35.9099 24.65Z" fill="black"/>
<path id="Vector_6" d="M42.2398 24.73C41.6998 24.73 41.2298 24.61 40.8398 24.37C40.4398 24.13 40.1298 23.8 39.8998 23.38C39.6698 22.96 39.5598 22.49 39.5598 21.95C39.5598 21.41 39.6698 20.92 39.8998 20.5C40.1298 20.08 40.4398 19.75 40.8498 19.51C41.2498 19.27 41.7198 19.15 42.2498 19.15C42.7798 19.15 43.2598 19.27 43.6498 19.51C44.0498 19.75 44.3598 20.08 44.5798 20.5C44.7998 20.92 44.9098 21.4 44.9098 21.94C44.9098 22.48 44.7998 22.96 44.5698 23.38C44.3498 23.8 44.0298 24.13 43.6298 24.37C43.2298 24.61 42.7598 24.73 42.2298 24.73H42.2398ZM42.2498 23.96C42.6098 23.96 42.9298 23.88 43.1898 23.71C43.4498 23.54 43.6498 23.31 43.7998 23C43.9498 22.7 44.0198 22.34 44.0198 21.94C44.0198 21.54 43.9498 21.18 43.8098 20.87C43.6698 20.57 43.4698 20.33 43.1998 20.16C42.9298 19.99 42.6198 19.91 42.2598 19.91C41.8998 19.91 41.5898 19.99 41.3198 20.16C41.0498 20.33 40.8398 20.56 40.6898 20.87C40.5398 21.17 40.4698 21.53 40.4698 21.94C40.4698 22.35 40.5398 22.69 40.6898 23C40.8398 23.3 41.0498 23.54 41.3198 23.71C41.5898 23.88 41.9098 23.96 42.2598 23.96H42.2498Z" fill="black"/>
<path id="Vector_7" d="M48.2998 24.73C47.7798 24.73 47.3998 24.62 47.1598 24.41C46.9198 24.2 46.7898 23.85 46.7898 23.37V20H45.5798V19.4L46.7898 19.23V17.92L47.6598 17.54V19.23H49.6298V20H47.6598V23.11C47.6598 23.41 47.7198 23.63 47.8398 23.77C47.9598 23.9 48.1998 23.97 48.5498 23.97C48.6698 23.97 48.7998 23.97 48.9198 23.95C49.0398 23.94 49.1698 23.92 49.2998 23.9L49.6198 23.86L49.7298 24.49L49.4498 24.57C49.2798 24.61 49.0898 24.65 48.8798 24.68C48.6698 24.71 48.4798 24.73 48.2998 24.73Z" fill="black"/>
<path id="Vector_8" d="M53.0299 24.73C52.4899 24.73 52.0199 24.61 51.6299 24.37C51.2299 24.13 50.9199 23.8 50.6899 23.38C50.4599 22.96 50.3499 22.49 50.3499 21.95C50.3499 21.41 50.4599 20.92 50.6899 20.5C50.9199 20.08 51.2299 19.75 51.6399 19.51C52.0399 19.27 52.5099 19.15 53.0399 19.15C53.5699 19.15 54.0499 19.27 54.4399 19.51C54.8399 19.75 55.1499 20.08 55.3699 20.5C55.5899 20.92 55.6999 21.4 55.6999 21.94C55.6999 22.48 55.5899 22.96 55.3599 23.38C55.1399 23.8 54.8199 24.13 54.4199 24.37C54.0199 24.61 53.5499 24.73 53.0199 24.73H53.0299ZM53.0399 23.96C53.3999 23.96 53.7199 23.88 53.9799 23.71C54.2399 23.54 54.4399 23.31 54.5899 23C54.7399 22.7 54.8099 22.34 54.8099 21.94C54.8099 21.54 54.7399 21.18 54.5999 20.87C54.4599 20.57 54.2599 20.33 53.9899 20.16C53.7199 19.99 53.4099 19.91 53.0499 19.91C52.6899 19.91 52.3799 19.99 52.1099 20.16C51.8399 20.33 51.6299 20.56 51.4799 20.87C51.3299 21.17 51.2599 21.53 51.2599 21.94C51.2599 22.35 51.3299 22.69 51.4799 23C51.6299 23.3 51.8399 23.54 52.1099 23.71C52.3799 23.88 52.6999 23.96 53.0499 23.96H53.0399Z" fill="black"/>
<path id="Vector_9" d="M59.5598 24.73C59.0398 24.73 58.5698 24.62 58.1498 24.4C57.7298 24.18 57.3998 23.86 57.1598 23.45C56.9198 23.04 56.7998 22.54 56.7998 21.95C56.7998 21.36 56.9298 20.85 57.1798 20.43C57.4298 20.01 57.7698 19.7 58.1898 19.48C58.6098 19.26 59.0698 19.15 59.5798 19.15C59.8198 19.15 60.0598 19.17 60.2998 19.22C60.5398 19.26 60.7698 19.33 60.9898 19.43L61.2598 19.54L61.0898 20.18L60.7598 20.08C60.5798 20.03 60.3998 19.99 60.2098 19.97C60.0198 19.94 59.8498 19.93 59.6798 19.93C59.2998 19.93 58.9498 20.01 58.6598 20.17C58.3698 20.33 58.1298 20.56 57.9598 20.86C57.7898 21.16 57.6998 21.52 57.6998 21.96C57.6998 22.4 57.7898 22.74 57.9598 23.04C58.1298 23.34 58.3698 23.57 58.6698 23.73C58.9698 23.89 59.3098 23.96 59.6998 23.96C59.8698 23.96 60.0498 23.95 60.2398 23.92C60.4298 23.89 60.6198 23.86 60.7998 23.81L61.1498 23.71L61.3198 24.33L61.0198 24.46C60.7898 24.55 60.5498 24.63 60.2998 24.67C60.0498 24.71 59.8098 24.74 59.5798 24.74L59.5598 24.73Z" fill="black"/>
<path id="Vector_10" d="M64.7098 24.73C64.1698 24.73 63.6998 24.61 63.3098 24.37C62.9098 24.13 62.5998 23.8 62.3698 23.38C62.1398 22.96 62.0298 22.49 62.0298 21.95C62.0298 21.41 62.1398 20.92 62.3698 20.5C62.5998 20.08 62.9098 19.75 63.3198 19.51C63.7198 19.27 64.1898 19.15 64.7198 19.15C65.2498 19.15 65.7298 19.27 66.1198 19.51C66.5198 19.75 66.8298 20.08 67.0498 20.5C67.2698 20.92 67.3798 21.4 67.3798 21.94C67.3798 22.48 67.2698 22.96 67.0398 23.38C66.8198 23.8 66.4998 24.13 66.0998 24.37C65.6998 24.61 65.2298 24.73 64.6998 24.73H64.7098ZM64.7198 23.96C65.0798 23.96 65.3998 23.88 65.6598 23.71C65.9198 23.54 66.1198 23.31 66.2698 23C66.4198 22.7 66.4898 22.34 66.4898 21.94C66.4898 21.54 66.4198 21.18 66.2798 20.87C66.1398 20.57 65.9398 20.33 65.6698 20.16C65.3998 19.99 65.0898 19.91 64.7298 19.91C64.3698 19.91 64.0598 19.99 63.7898 20.16C63.5198 20.33 63.3098 20.56 63.1598 20.87C63.0098 21.17 62.9398 21.53 62.9398 21.94C62.9398 22.35 63.0098 22.69 63.1598 23C63.3098 23.3 63.5198 23.54 63.7898 23.71C64.0598 23.88 64.3798 23.96 64.7298 23.96H64.7198Z" fill="black"/>
<path id="Vector_11" d="M70.0898 24.73C69.6198 24.73 69.2798 24.63 69.0698 24.42C68.8598 24.21 68.7498 23.92 68.7498 23.55V16.62L69.6198 16.27V23.35C69.6198 23.56 69.6698 23.71 69.7798 23.81C69.8798 23.91 70.0698 23.96 70.3298 23.96C70.3998 23.96 70.4698 23.96 70.5498 23.96C70.6298 23.96 70.7198 23.95 70.8198 23.93V24.59C70.6898 24.64 70.5598 24.68 70.4398 24.7C70.3198 24.72 70.1998 24.73 70.0898 24.73Z" fill="black"/>
</g>
</g>
<g id="Group_4">
<g id="Group_5" opacity="0.1">
<path id="Vector_12" d="M10.77 0.97998L0 11.13V20.19L4.97 26.98H16.57L21.54 20.19L21.51 11.13L10.77 0.97998Z" fill="#0B63FF"/>
</g>
<path id="Vector_13" d="M10.77 2.89998L20.12 11.74L20.14 19.74L15.86 25.59H5.67L1.39 19.74V11.74L10.77 2.89998ZM10.77 0.97998L0 11.13V20.19L4.97 26.98H16.57L21.54 20.19L21.52 11.13L10.77 0.97998Z" fill="#0B63FF"/>
<path id="Vector_14" d="M10.77 5.27998L15.18 18.16V25.59H6.35997V18.16L10.77 5.27998ZM10.77 0.97998L4.96997 17.93V26.98H16.57V17.93L10.77 0.97998Z" fill="#0B63FF"/>
<path id="Vector_15" d="M10.77 2.89998L19.67 11.31L15.86 16.54H5.67L1.85 11.31L10.77 2.89998ZM10.77 0.97998L0 11.13L4.97 17.92H16.57L21.51 11.13L10.77 0.97998Z" fill="#0B63FF"/>
</g>
</g>
<defs>
<clipPath id="clip0_0_906">
<rect width="71.14" height="26.04" fill="white" transform="translate(0 0.97998)"/>
</clipPath>
</defs>
</svg>
