<svg width="172" height="28" viewBox="0 0 172 28" fill="none" xmlns="http://www.w3.org/2000/svg">
<g id="Logo" clip-path="url(#clip0_0_693)">
<g id="Group">
<g id="Group_2">
<path id="Vector" d="M41.1298 18.0399H39.6798V22.0199H34.3398V6.18994H41.9598C43.4198 6.18994 44.6998 6.42994 45.7798 6.90994C46.8698 7.38994 47.6998 8.08994 48.2898 8.98994C48.8798 9.88994 49.1698 10.9499 49.1698 12.1599C49.1698 13.2899 48.9098 14.2799 48.3998 15.1199C47.8898 15.9599 47.1498 16.6299 46.1798 17.1299L49.4998 22.0199H43.7998L41.1098 18.0399H41.1298ZM43.2598 10.7899C42.8998 10.4699 42.3598 10.2999 41.6298 10.2999H39.6898V14.0099H41.6298C42.3498 14.0099 42.8998 13.8499 43.2598 13.5199C43.6198 13.1999 43.7998 12.7399 43.7998 12.1499C43.7998 11.5599 43.6198 11.1099 43.2598 10.7799V10.7899Z" fill="black"/>
<path id="Vector_2" d="M76.9496 6.18994L71.8796 22.0199H66.1596L63.5996 13.5599L60.9096 22.0199H55.1896L50.1196 6.18994H55.6196L58.3796 15.1899L61.2996 6.18994H66.2096L68.9696 15.2999L71.8896 6.18994H76.9596H76.9496Z" fill="black"/>
<path id="Vector_3" d="M87.1996 16.2799V22.0199H81.8596V16.2099L75.8896 6.18994H81.5196L84.7496 11.6599L88.0097 6.18994H93.1696L87.1996 16.2799Z" fill="black"/>
</g>
<g id="Group_3">
<path id="Vector_4" d="M103.11 12.3999C103.89 12.8299 104.49 13.4399 104.93 14.2299C105.37 15.0199 105.59 15.9199 105.59 16.9199C105.59 17.9199 105.37 18.8499 104.93 19.6299C104.49 20.4099 103.89 21.0299 103.12 21.4599C102.35 21.8899 101.48 22.1099 100.51 22.1099C99.68 22.1099 98.94 21.9399 98.27 21.5999C97.6 21.2599 97.06 20.7599 96.63 20.0999V25.7799H95.25V11.8199H96.57V13.8399C96.98 13.1699 97.53 12.6499 98.21 12.2899C98.89 11.9299 99.65 11.7499 100.51 11.7499C101.47 11.7499 102.33 11.9699 103.11 12.3999ZM102.35 20.3999C102.93 20.0699 103.39 19.5999 103.72 18.9899C104.05 18.3799 104.21 17.6899 104.21 16.9199C104.21 16.1499 104.05 15.4599 103.72 14.8599C103.39 14.2599 102.93 13.7899 102.35 13.4499C101.77 13.1099 101.12 12.9499 100.41 12.9499C99.7 12.9499 99.04 13.1199 98.46 13.4499C97.88 13.7899 97.43 14.2499 97.1 14.8599C96.77 15.4599 96.61 16.1499 96.61 16.9199C96.61 17.6899 96.78 18.3899 97.1 18.9899C97.43 19.5999 97.88 20.0699 98.46 20.3999C99.03 20.7299 99.68 20.8899 100.41 20.8899C101.14 20.8899 101.77 20.7299 102.35 20.3999Z" fill="black"/>
<path id="Vector_5" d="M111.16 12.2699C111.8 11.9199 112.59 11.7499 113.53 11.7499V13.0899L113.2 13.0699C112.13 13.0699 111.29 13.3999 110.68 14.0599C110.07 14.7199 109.77 15.6399 109.77 16.8299V22.0299H108.39V11.8299H109.71V13.8299C110.03 13.1399 110.51 12.6299 111.15 12.2799L111.16 12.2699Z" fill="black"/>
<path id="Vector_6" d="M117.43 21.4499C116.64 20.9999 116.02 20.3899 115.57 19.5999C115.12 18.8099 114.89 17.9199 114.89 16.9299C114.89 15.9399 115.12 15.0399 115.57 14.2599C116.02 13.4699 116.64 12.8599 117.43 12.4199C118.22 11.9799 119.1 11.7599 120.09 11.7599C121.08 11.7599 121.96 11.9799 122.75 12.4199C123.54 12.8599 124.16 13.4699 124.6 14.2599C125.05 15.0499 125.27 15.9399 125.27 16.9299C125.27 17.9199 125.05 18.8199 124.6 19.5999C124.15 20.3799 123.54 21.0099 122.75 21.4499C121.96 21.8999 121.08 22.1199 120.09 22.1199C119.1 22.1199 118.22 21.8999 117.43 21.4499ZM122.04 20.3999C122.61 20.0699 123.06 19.5999 123.39 18.9899C123.71 18.3799 123.87 17.6899 123.87 16.9199C123.87 16.1499 123.71 15.4499 123.39 14.8499C123.07 14.2399 122.62 13.7699 122.04 13.4399C121.46 13.1099 120.82 12.9499 120.09 12.9499C119.36 12.9499 118.72 13.1099 118.14 13.4399C117.56 13.7699 117.11 14.2399 116.78 14.8499C116.45 15.4599 116.29 16.1499 116.29 16.9199C116.29 17.6899 116.45 18.3899 116.78 18.9899C117.11 19.5999 117.56 20.0699 118.14 20.3999C118.71 20.7299 119.36 20.8899 120.09 20.8899C120.82 20.8899 121.46 20.7299 122.04 20.3999Z" fill="black"/>
<path id="Vector_7" d="M133.44 21.3998C133.18 21.6298 132.86 21.8098 132.48 21.9298C132.1 22.0498 131.7 22.1098 131.29 22.1098C130.33 22.1098 129.6 21.8498 129.08 21.3298C128.56 20.8098 128.3 20.0798 128.3 19.1398V12.9798H126.48V11.8198H128.3V9.58984H129.68V11.8198H132.78V12.9798H129.68V19.0698C129.68 19.6798 129.83 20.1398 130.14 20.4598C130.44 20.7798 130.88 20.9398 131.45 20.9398C131.73 20.9398 132.01 20.8898 132.27 20.7998C132.53 20.7098 132.76 20.5798 132.96 20.4098L133.44 21.3998Z" fill="black"/>
<path id="Vector_8" d="M137.09 21.4499C136.3 20.9999 135.68 20.3899 135.23 19.5999C134.78 18.8099 134.55 17.9199 134.55 16.9299C134.55 15.9399 134.78 15.0399 135.23 14.2599C135.68 13.4699 136.3 12.8599 137.09 12.4199C137.88 11.9799 138.76 11.7599 139.75 11.7599C140.74 11.7599 141.62 11.9799 142.41 12.4199C143.2 12.8599 143.82 13.4699 144.26 14.2599C144.71 15.0499 144.93 15.9399 144.93 16.9299C144.93 17.9199 144.71 18.8199 144.26 19.5999C143.81 20.3899 143.2 21.0099 142.41 21.4499C141.62 21.8999 140.74 22.1199 139.75 22.1199C138.76 22.1199 137.88 21.8999 137.09 21.4499ZM141.69 20.3999C142.26 20.0699 142.71 19.5999 143.04 18.9899C143.36 18.3799 143.52 17.6899 143.52 16.9199C143.52 16.1499 143.36 15.4499 143.04 14.8499C142.72 14.2399 142.27 13.7699 141.69 13.4399C141.12 13.1099 140.47 12.9499 139.74 12.9499C139.01 12.9499 138.37 13.1099 137.79 13.4399C137.21 13.7699 136.76 14.2399 136.43 14.8499C136.1 15.4599 135.94 16.1499 135.94 16.9199C135.94 17.6899 136.1 18.3899 136.43 18.9899C136.76 19.5999 137.21 20.0699 137.79 20.3999C138.36 20.7299 139.01 20.8899 139.74 20.8899C140.47 20.8899 141.11 20.7299 141.69 20.3999Z" fill="black"/>
<path id="Vector_9" d="M149.25 21.4599C148.46 21.0199 147.83 20.3999 147.38 19.6099C146.93 18.8199 146.7 17.9199 146.7 16.9299C146.7 15.9399 146.93 15.0399 147.38 14.2599C147.83 13.4699 148.46 12.8599 149.25 12.4199C150.05 11.9799 150.95 11.7599 151.95 11.7599C152.83 11.7599 153.61 11.9299 154.31 12.2699C155 12.6099 155.55 13.1099 155.95 13.7699L154.92 14.4699C154.58 13.9699 154.16 13.5899 153.64 13.3399C153.12 13.0899 152.56 12.9599 151.95 12.9599C151.21 12.9599 150.55 13.1199 149.96 13.4499C149.37 13.7799 148.91 14.2499 148.58 14.8599C148.25 15.4699 148.09 16.1599 148.09 16.9299C148.09 17.6999 148.25 18.4099 148.58 19.0099C148.91 19.6099 149.37 20.0799 149.96 20.4099C150.55 20.7399 151.21 20.8999 151.95 20.8999C152.56 20.8999 153.12 20.7799 153.64 20.5299C154.16 20.2799 154.58 19.9099 154.92 19.4099L155.95 20.1099C155.55 20.7699 155 21.2699 154.3 21.6099C153.6 21.9499 152.82 22.1199 151.95 22.1199C150.94 22.1199 150.04 21.8999 149.25 21.4599Z" fill="black"/>
<path id="Vector_10" d="M159.98 21.4499C159.19 20.9999 158.57 20.3899 158.12 19.5999C157.67 18.8099 157.44 17.9199 157.44 16.9299C157.44 15.9399 157.67 15.0399 158.12 14.2599C158.57 13.4699 159.19 12.8599 159.98 12.4199C160.77 11.9799 161.65 11.7599 162.64 11.7599C163.63 11.7599 164.51 11.9799 165.3 12.4199C166.09 12.8599 166.71 13.4699 167.15 14.2599C167.6 15.0499 167.82 15.9399 167.82 16.9299C167.82 17.9199 167.6 18.8199 167.15 19.5999C166.7 20.3799 166.09 21.0099 165.3 21.4499C164.51 21.8999 163.63 22.1199 162.64 22.1199C161.65 22.1199 160.77 21.8999 159.98 21.4499ZM164.59 20.3999C165.16 20.0699 165.61 19.5999 165.94 18.9899C166.26 18.3799 166.42 17.6899 166.42 16.9199C166.42 16.1499 166.26 15.4499 165.94 14.8499C165.62 14.2399 165.17 13.7699 164.59 13.4399C164.01 13.1099 163.37 12.9499 162.64 12.9499C161.91 12.9499 161.27 13.1099 160.69 13.4399C160.11 13.7699 159.66 14.2399 159.33 14.8499C159 15.4599 158.84 16.1499 158.84 16.9199C158.84 17.6899 159 18.3899 159.33 18.9899C159.66 19.5999 160.11 20.0699 160.69 20.3999C161.26 20.7299 161.91 20.8899 162.64 20.8899C163.37 20.8899 164.01 20.7299 164.59 20.3999Z" fill="black"/>
<path id="Vector_11" d="M170.62 7.63989H172V22.0199H170.62V7.63989Z" fill="black"/>
</g>
</g>
<g id="Group_4">
<g id="Group_5" opacity="0.1">
<path id="Vector_12" d="M11.6 0L0 10.93V20.69L5.35 28H17.84L23.19 20.69L23.17 10.93L11.6 0Z" fill="#0B63FF"/>
</g>
<path id="Vector_13" d="M11.6 2.06L21.67 11.58L21.69 20.2L17.08 26.5H6.11L1.5 20.2V11.58L11.6 2.06ZM11.6 0L0 10.93V20.69L5.35 28H17.84L23.19 20.69L23.16 10.93L11.6 0Z" fill="#0B63FF"/>
<path id="Vector_14" d="M11.6001 4.63L16.3501 18.5V26.5H6.8501V18.5L11.6001 4.63ZM11.6001 0L5.3501 18.25V28H17.8401V18.25L11.6001 0Z" fill="#0B63FF"/>
<path id="Vector_15" d="M11.6 2.06L21.18 11.12L17.08 16.75H6.11L1.99 11.12L11.6 2.06ZM11.6 0L0 10.93L5.35 18.25H17.84L23.16 10.93L11.6 0Z" fill="#0B63FF"/>
</g>
</g>
<defs>
<clipPath id="clip0_0_693">
<rect width="172" height="28" fill="white"/>
</clipPath>
</defs>
</svg>
