<svg width="30" height="31" viewBox="0 0 30 31" fill="none" xmlns="http://www.w3.org/2000/svg">
<g id="Layer_1" clip-path="url(#clip0_0_1343)">
<path id="Vector" d="M14.9999 30.4957C23.2818 30.4957 29.9957 23.7818 29.9957 15.4999C29.9957 7.21789 23.2818 0.504028 14.9999 0.504028C6.71789 0.504028 0.00402832 7.21789 0.00402832 15.4999C0.00402832 23.7818 6.71789 30.4957 14.9999 30.4957Z" fill="#0B63FF"/>
<g id="Group">
<g id="Group_2" opacity="0.1">
<path id="Vector_2" d="M14.9875 6.1571L7.2583 13.4447V19.9473L10.824 24.8186H19.151L22.7167 19.9473L22.6993 13.4447L14.9875 6.1571Z" fill="white"/>
</g>
<path id="Vector_3" d="M14.9868 7.53172L21.701 13.8766L21.7163 19.622L18.6441 23.8189H11.3315L8.25836 19.6207V13.8763L14.9872 7.53206M14.9875 6.1571L7.2583 13.4447V19.9476L10.824 24.8186H19.151L22.7167 19.9476L22.6993 13.4447L14.9875 6.1571Z" fill="white"/>
<path id="Vector_4" d="M14.9875 9.24391L18.1513 18.4867V23.8185H11.8237V18.4867L14.9875 9.24391ZM14.9875 6.1571L10.824 18.3207V24.8186H19.151V18.3207L14.9875 6.1571Z" fill="white"/>
<path id="Vector_5" d="M14.9868 7.53172L21.3737 13.5674L18.6421 17.321H11.3315L8.58627 13.5667L14.9868 7.53172ZM14.9875 6.1571L7.2583 13.4447L10.824 18.3207H19.151L22.6997 13.4447L14.9878 6.1571H14.9875Z" fill="white"/>
</g>
</g>
<defs>
<clipPath id="clip0_0_1343">
<rect width="29.9997" height="30" fill="white" transform="translate(0 0.5)"/>
</clipPath>
</defs>
</svg>
