<svg width="14" height="15" viewBox="0 0 14 15" fill="none" xmlns="http://www.w3.org/2000/svg">
<path id="Vector" d="M13.6245 0.666445C13.5316 0.598833 13.4262 0.550308 13.3144 0.523676C13.2026 0.497044 13.0866 0.492832 12.9732 0.511284C12.8598 0.529735 12.7511 0.570485 12.6536 0.631178C12.556 0.69187 12.4714 0.771301 12.4047 0.86488L4.21634 12.2866L1.4791 9.54934C1.31314 9.3947 1.09364 9.31051 0.866841 9.31451C0.64004 9.31851 0.423647 9.41039 0.263249 9.57079C0.102852 9.73118 0.010974 9.94758 0.00697233 10.1744C0.00297069 10.4012 0.0871576 10.6207 0.241797 10.7866L3.70274 14.2534C3.79406 14.3405 3.90279 14.4072 4.02177 14.4491C4.14075 14.4911 4.26727 14.5074 4.39299 14.4969C4.51872 14.4864 4.6408 14.4494 4.75119 14.3884C4.86157 14.3273 4.95777 14.2435 5.03342 14.1425L13.8288 1.88624C13.8961 1.79296 13.9442 1.68726 13.9704 1.57525C13.9966 1.46324 14.0003 1.34715 13.9813 1.2337C13.9623 1.12025 13.921 1.01169 13.8597 0.914322C13.7985 0.816952 13.7185 0.7327 13.6245 0.666445Z" fill="#39C412"/>
</svg>
